<mxfile host="65bd71144e">
    <diagram id="6km2f2W8Yabwb05ln55E" name="Page-1">
        <mxGraphModel dx="1147" dy="567" grid="1" gridSize="10" guides="1" tooltips="1" connect="1" arrows="1" fold="1" page="1" pageScale="1" pageWidth="850" pageHeight="1100" math="0" shadow="0">
            <root>
                <mxCell id="0"/>
                <mxCell id="1" parent="0"/>
                <mxCell id="2" value="&lt;font style=&quot;font-size: 14px&quot;&gt;PortfolioManager&lt;/font&gt;" style="rounded=1;whiteSpace=wrap;html=1;fillColor=#6d8764;fontColor=#ffffff;strokeColor=#3A5431;align=left;verticalAlign=top;" parent="1" vertex="1">
                    <mxGeometry x="10" width="410" height="280" as="geometry"/>
                </mxCell>
                <mxCell id="15" value="&lt;font color=&quot;#fae674&quot;&gt;Multicall&lt;/font&gt;" style="rounded=1;whiteSpace=wrap;html=1;fontSize=14;fillColor=#a0522d;fontColor=#ffffff;strokeColor=#6D1F00;align=left;verticalAlign=top;" parent="1" vertex="1">
                    <mxGeometry x="230" y="140" width="180" height="120" as="geometry"/>
                </mxCell>
                <mxCell id="6" value="&lt;div style=&quot;color: rgb(187 , 187 , 187) ; background-color: rgb(40 , 44 , 52) ; font-family: &amp;#34;droid sans mono&amp;#34; , &amp;#34;monospace&amp;#34; , monospace ; line-height: 19px&quot;&gt;&lt;/div&gt;periodically updates prices" style="edgeStyle=none;html=1;fontSize=14;curved=1;" parent="1" source="5" target="14" edge="1">
                    <mxGeometry x="-0.1428" y="-6" relative="1" as="geometry">
                        <mxPoint x="191" y="250" as="targetPoint"/>
                        <mxPoint as="offset"/>
                    </mxGeometry>
                </mxCell>
                <mxCell id="5" value="&lt;span style=&quot;font-size: 14px&quot;&gt;Raspberry Pi Keeper&lt;br&gt;(peroforms staticCalls)&lt;br&gt;&lt;/span&gt;" style="rounded=1;whiteSpace=wrap;html=1;fillColor=#647687;fontColor=#ffffff;strokeColor=#314354;" parent="1" vertex="1">
                    <mxGeometry x="160" y="410" width="180" height="140" as="geometry"/>
                </mxCell>
                <mxCell id="8" value="&lt;font style=&quot;font-size: 14px&quot;&gt;DefiAggregator&lt;/font&gt;" style="rounded=1;whiteSpace=wrap;html=1;fillColor=#6d8764;fontColor=#ffffff;strokeColor=#3A5431;" parent="1" vertex="1">
                    <mxGeometry x="500" y="70" width="180" height="140" as="geometry"/>
                </mxCell>
                <mxCell id="26" value="sell/buy assets" style="edgeStyle=none;curved=1;html=1;fontSize=14;" parent="1" source="13" target="8" edge="1">
                    <mxGeometry x="-0.0385" y="13" relative="1" as="geometry">
                        <mxPoint as="offset"/>
                    </mxGeometry>
                </mxCell>
                <mxCell id="13" value="&lt;div style=&quot;color: rgb(187 , 187 , 187) ; background-color: rgb(40 , 44 , 52) ; font-family: &amp;#34;droid sans mono&amp;#34; , &amp;#34;monospace&amp;#34; , monospace ; line-height: 19px&quot;&gt;&lt;span style=&quot;color: #fae674&quot;&gt;&lt;font style=&quot;font-size: 14px&quot;&gt;performUpkeep()&lt;/font&gt;&lt;/span&gt;&lt;/div&gt;" style="rounded=1;whiteSpace=wrap;html=1;fontSize=14;" parent="1" vertex="1">
                    <mxGeometry x="30" y="50" width="140" height="80" as="geometry"/>
                </mxCell>
                <mxCell id="21" style="edgeStyle=none;curved=1;html=1;fontSize=14;exitX=0.994;exitY=0.629;exitDx=0;exitDy=0;exitPerimeter=0;entryX=0;entryY=0.75;entryDx=0;entryDy=0;" parent="1" source="14" target="20" edge="1">
                    <mxGeometry relative="1" as="geometry">
                        <mxPoint x="240" y="230" as="targetPoint"/>
                    </mxGeometry>
                </mxCell>
                <mxCell id="25" value="calldata[] addresses" style="edgeStyle=none;curved=1;html=1;entryX=0.5;entryY=1;entryDx=0;entryDy=0;fontSize=14;" parent="1" source="14" target="13" edge="1">
                    <mxGeometry relative="1" as="geometry"/>
                </mxCell>
                <mxCell id="14" value="&lt;div style=&quot;color: rgb(187 , 187 , 187) ; background-color: rgb(40 , 44 , 52) ; font-family: &amp;#34;droid sans mono&amp;#34; , &amp;#34;monospace&amp;#34; , monospace ; line-height: 19px&quot;&gt;&lt;span style=&quot;color: #fae674&quot;&gt;&lt;font style=&quot;font-size: 14px&quot;&gt;checkUpkeep()&lt;/font&gt;&lt;/span&gt;&lt;/div&gt;" style="rounded=1;whiteSpace=wrap;html=1;fontSize=14;" parent="1" vertex="1">
                    <mxGeometry x="30" y="180" width="140" height="80" as="geometry"/>
                </mxCell>
                <mxCell id="24" style="edgeStyle=none;curved=1;html=1;entryX=1.007;entryY=0.375;entryDx=0;entryDy=0;entryPerimeter=0;fontSize=14;" parent="1" source="20" target="14" edge="1">
                    <mxGeometry relative="1" as="geometry"/>
                </mxCell>
                <mxCell id="28" style="edgeStyle=none;curved=1;html=1;fontSize=14;" parent="1" source="20" target="27" edge="1">
                    <mxGeometry relative="1" as="geometry"/>
                </mxCell>
                <mxCell id="20" value="&lt;div style=&quot;color: rgb(187 , 187 , 187) ; background-color: rgb(40 , 44 , 52) ; font-family: &amp;#34;droid sans mono&amp;#34; , &amp;#34;monospace&amp;#34; , monospace ; line-height: 19px&quot;&gt;&lt;span style=&quot;color: #fae674&quot;&gt;&lt;font style=&quot;font-size: 14px&quot;&gt;fetchAssetPrices()&lt;/font&gt;&lt;/span&gt;&lt;/div&gt;" style="rounded=1;whiteSpace=wrap;html=1;fontSize=14;" parent="1" vertex="1">
                    <mxGeometry x="245" y="170" width="155" height="80" as="geometry"/>
                </mxCell>
                <mxCell id="29" style="edgeStyle=none;curved=1;html=1;entryX=1;entryY=0.75;entryDx=0;entryDy=0;fontSize=14;" parent="1" source="27" target="20" edge="1">
                    <mxGeometry relative="1" as="geometry"/>
                </mxCell>
                <mxCell id="27" value="&lt;font style=&quot;font-size: 14px&quot;&gt;ChainlinkPriceFeeds&lt;/font&gt;" style="rounded=1;whiteSpace=wrap;html=1;fillColor=#647687;fontColor=#ffffff;strokeColor=#314354;" parent="1" vertex="1">
                    <mxGeometry x="420" y="330" width="180" height="140" as="geometry"/>
                </mxCell>
            </root>
        </mxGraphModel>
    </diagram>
</mxfile>